{
  "extensionsUsed": [
    "CVTOOLS_babylon_mesh",
    "CVTOOLS_left_handed",
    "CVTOOLS_unity_metadata",
    "KHR_materials_specular"
  ],
  "extensionsRequired": [
    "CVTOOLS_babylon_mesh",
    "CVTOOLS_left_handed"
  ],
  "accessors": [
    {
      "bufferView": 0,
      "componentType": 5126,
      "count": 24,
      "type": "VEC3",
      "max": [
        0.5,
        0.5,
        0.5
      ],
      "min": [
        -0.5,
        -0.5,
        -0.5
      ],
      "name": "vertices"
    },
    {
      "bufferView": 1,
      "componentType": 5126,
      "count": 24,
      "type": "VEC3",
      "max": [
        1.0,
        1.0,
        1.0
      ],
      "min": [
        -1.0,
        -1.0,
        -1.0
      ],
      "name": "normals"
    },
    {
      "bufferView": 2,
      "componentType": 5126,
      "count": 24,
      "type": "VEC4",
      "max": [
        0.0,
        0.0,
        1.0,
        -1.0
      ],
      "min": [
        -1.0,
        0.0,
        -1.0,
        -1.0
      ],
      "name": "tangents"
    },
    {
      "bufferView": 3,
      "componentType": 5126,
      "count": 24,
      "type": "VEC2",
      "max": [
        1.0,
        1.0
      ],
      "min": [
        0.0,
        0.0
      ],
      "name": "uv"
    },
    {
      "bufferView": 4,
      "componentType": 5126,
      "count": 24,
      "type": "VEC2",
      "max": [
        0.9966580867767334,
        0.99594426155090332
      ],
      "min": [
        0.0040557663887739182,
        0.34716415405273438
      ],
      "name": "uv2"
    },
    {
      "bufferView": 5,
      "componentType": 5125,
      "count": 36,
      "type": "SCALAR",
      "max": [
        23.0
      ],
      "min": [
        0.0
      ],
      "name": "indices"
    },
    {
      "bufferView": 6,
      "componentType": 5126,
      "count": 121,
      "type": "VEC3",
      "max": [
        5.0,
        1.1102230246251565E-16,
        5.0
      ],
      "min": [
        -5.0,
        -1.1102230246251565E-16,
        -5.0
      ],
      "name": "vertices"
    },
    {
      "bufferView": 7,
      "componentType": 5126,
      "count": 121,
      "type": "VEC3",
      "max": [
        0.0,
        1.0,
        0.0
      ],
      "min": [
        0.0,
        1.0,
        0.0
      ],
      "name": "normals"
    },
    {
      "bufferView": 8,
      "componentType": 5126,
      "count": 121,
      "type": "VEC4",
      "max": [
        -1.0,
        0.0,
        0.0,
        -1.0
      ],
      "min": [
        -1.0,
        0.0,
        0.0,
        -1.0
      ],
      "name": "tangents"
    },
    {
      "bufferView": 9,
      "componentType": 5126,
      "count": 121,
      "type": "VEC2",
      "max": [
        1.0,
        1.0
      ],
      "min": [
        0.0,
        0.0
      ],
      "name": "uv"
    },
    {
      "bufferView": 10,
      "componentType": 5126,
      "count": 121,
      "type": "VEC2",
      "max": [
        1.0,
        1.0
      ],
      "min": [
        0.0,
        0.0
      ],
      "name": "uv2"
    },
    {
      "bufferView": 11,
      "componentType": 5125,
      "count": 600,
      "type": "SCALAR",
      "max": [
        120.0
      ],
      "min": [
        0.0
      ],
      "name": "indices"
    },
    {
      "bufferView": 12,
      "componentType": 5126,
      "count": 121,
      "type": "VEC3",
      "max": [
        5.0,
        1.1102230246251565E-16,
        5.0
      ],
      "min": [
        -5.0,
        -1.1102230246251565E-16,
        -5.0
      ],
      "name": "vertices"
    },
    {
      "bufferView": 13,
      "componentType": 5126,
      "count": 121,
      "type": "VEC3",
      "max": [
        0.0,
        1.0,
        0.0
      ],
      "min": [
        0.0,
        1.0,
        0.0
      ],
      "name": "normals"
    },
    {
      "bufferView": 14,
      "componentType": 5126,
      "count": 121,
      "type": "VEC4",
      "max": [
        -1.0,
        0.0,
        0.0,
        -1.0
      ],
      "min": [
        -1.0,
        0.0,
        0.0,
        -1.0
      ],
      "name": "tangents"
    },
    {
      "bufferView": 15,
      "componentType": 5126,
      "count": 121,
      "type": "VEC2",
      "max": [
        1.0,
        1.0
      ],
      "min": [
        0.0,
        0.0
      ],
      "name": "uv"
    },
    {
      "bufferView": 16,
      "componentType": 5126,
      "count": 121,
      "type": "VEC2",
      "max": [
        1.0,
        1.0
      ],
      "min": [
        0.0,
        0.0
      ],
      "name": "uv2"
    },
    {
      "bufferView": 17,
      "componentType": 5125,
      "count": 600,
      "type": "SCALAR",
      "max": [
        120.0
      ],
      "min": [
        0.0
      ],
      "name": "indices"
    },
    {
      "bufferView": 18,
      "componentType": 5126,
      "count": 515,
      "type": "VEC3",
      "max": [
        0.5,
        0.5,
        0.5
      ],
      "min": [
        -0.5,
        -0.5,
        -0.5
      ],
      "name": "vertices"
    },
    {
      "bufferView": 19,
      "componentType": 5126,
      "count": 515,
      "type": "VEC3",
      "max": [
        0.99997496604919434,
        1.0,
        0.9999769926071167
      ],
      "min": [
        -0.99997496604919434,
        -1.0,
        -0.99997353553771973
      ],
      "name": "normals"
    },
    {
      "bufferView": 20,
      "componentType": 5126,
      "count": 515,
      "type": "VEC4",
      "max": [
        1.0,
        0.056131001561880112,
        1.0,
        1.0
      ],
      "min": [
        -1.0,
        -0.065983392298221588,
        -1.0,
        -1.0
      ],
      "name": "tangents"
    },
    {
      "bufferView": 21,
      "componentType": 5126,
      "count": 515,
      "type": "VEC2",
      "max": [
        0.99833369255065918,
        0.98237103223800659
      ],
      "min": [
        -0.00092136859893798828,
        0.024108767509460449
      ],
      "name": "uv"
    },
    {
      "bufferView": 22,
      "componentType": 5126,
      "count": 515,
      "type": "VEC2",
      "max": [
        1.0000003576278687,
        1.0
      ],
      "min": [
        0.0,
        0.34614646434783936
      ],
      "name": "uv2"
    },
    {
      "bufferView": 23,
      "componentType": 5125,
      "count": 2304,
      "type": "SCALAR",
      "max": [
        514.0
      ],
      "min": [
        0.0
      ],
      "name": "indices"
    }
  ],
  "asset": {
    "generator": "Babylon Toolkit (6000.2.2f1)",
    "version": "2.0"
  },
  "buffers": [
    {
      "uri": "newscene.bin",
      "byteLength": 57896
    }
  ],
  "bufferViews": [
    {
      "buffer": 0,
      "byteLength": 288
    },
    {
      "buffer": 0,
      "byteOffset": 288,
      "byteLength": 288
    },
    {
      "buffer": 0,
      "byteOffset": 576,
      "byteLength": 384
    },
    {
      "buffer": 0,
      "byteOffset": 960,
      "byteLength": 192
    },
    {
      "buffer": 0,
      "byteOffset": 1152,
      "byteLength": 192
    },
    {
      "buffer": 0,
      "byteOffset": 1344,
      "byteLength": 144
    },
    {
      "buffer": 0,
      "byteOffset": 1488,
      "byteLength": 1452
    },
    {
      "buffer": 0,
      "byteOffset": 2940,
      "byteLength": 1452
    },
    {
      "buffer": 0,
      "byteOffset": 4392,
      "byteLength": 1936
    },
    {
      "buffer": 0,
      "byteOffset": 6328,
      "byteLength": 968
    },
    {
      "buffer": 0,
      "byteOffset": 7296,
      "byteLength": 968
    },
    {
      "buffer": 0,
      "byteOffset": 8264,
      "byteLength": 2400
    },
    {
      "buffer": 0,
      "byteOffset": 10664,
      "byteLength": 1452
    },
    {
      "buffer": 0,
      "byteOffset": 12116,
      "byteLength": 1452
    },
    {
      "buffer": 0,
      "byteOffset": 13568,
      "byteLength": 1936
    },
    {
      "buffer": 0,
      "byteOffset": 15504,
      "byteLength": 968
    },
    {
      "buffer": 0,
      "byteOffset": 16472,
      "byteLength": 968
    },
    {
      "buffer": 0,
      "byteOffset": 17440,
      "byteLength": 2400
    },
    {
      "buffer": 0,
      "byteOffset": 19840,
      "byteLength": 6180
    },
    {
      "buffer": 0,
      "byteOffset": 26020,
      "byteLength": 6180
    },
    {
      "buffer": 0,
      "byteOffset": 32200,
      "byteLength": 8240
    },
    {
      "buffer": 0,
      "byteOffset": 40440,
      "byteLength": 4120
    },
    {
      "buffer": 0,
      "byteOffset": 44560,
      "byteLength": 4120
    },
    {
      "buffer": 0,
      "byteOffset": 48680,
      "byteLength": 9216
    }
  ],
  "materials": [
    {
      "pbrMetallicRoughness": {
        "metallicFactor": 0.0,
        "roughnessFactor": 0.5
      },
      "emissiveFactor": [
        0.0,
        0.0,
        0.0
      ],
      "name": "Default-Material",
      "extensions": {
        "KHR_materials_specular": {}
      },
      "extras": {
        "metadata": {
          "alphaMode": 2,
          "alphaFade": false,
          "isSpecular": false,
          "useWireframe": false,
          "depthPrepass": false,
          "freezeMaterial": false,
          "disableLighting": false,
          "detailBlendLevel": 0.75,
          "detailBumpLevel": 1.0,
          "detailRoughLevel": 0.5,
          "lightmapLevel": 0.5,
          "backFaceCulling": true,
          "directIntensity": 1.0,
          "specularIntensity": 1.0,
          "emissiveIntensity": 1.0,
          "environmentIntensity": 1.0,
          "useExpandedLightmapTexture": false,
          "useEmissiveAsIllumination": false,
          "useLightmapAsShadowmap": true,
          "useAlphaFromAlbedoTexture": false,
          "hasAlbedoTextureChannel": false,
          "maxSimultaneousLights": 4,
          "clearCoatIntensity": 0.0,
          "indexOfRefraction": 1.5,
          "ambientColorFactor": [
            1.0,
            1.0,
            1.0,
            1.0
          ],
          "reflectionColorFactor": [
            1.0,
            1.0,
            1.0,
            1.0
          ]
        }
      }
    },
    {
      "pbrMetallicRoughness": {
        "baseColorFactor": [
          0.0,
          0.5225216,
          0.0,
          1.0
        ],
        "metallicFactor": 0.0,
        "roughnessFactor": 0.5
      },
      "name": "Collider-Material",
      "extensions": {
        "KHR_materials_specular": {}
      },
      "extras": {
        "metadata": {
          "alphaMode": 2,
          "alphaFade": false,
          "isSpecular": false,
          "useWireframe": true,
          "depthPrepass": false,
          "freezeMaterial": false,
          "disableLighting": false,
          "detailBlendLevel": 0.75,
          "detailBumpLevel": 1.0,
          "detailRoughLevel": 0.5,
          "lightmapLevel": 0.5,
          "backFaceCulling": true,
          "directIntensity": 1.0,
          "specularIntensity": 1.0,
          "emissiveIntensity": 1.0,
          "environmentIntensity": 1.0,
          "useExpandedLightmapTexture": false,
          "useEmissiveAsIllumination": false,
          "useLightmapAsShadowmap": true,
          "useAlphaFromAlbedoTexture": false,
          "hasAlbedoTextureChannel": false,
          "maxSimultaneousLights": 4,
          "clearCoatIntensity": 0.0,
          "indexOfRefraction": 1.5,
          "ambientColorFactor": [
            1.0,
            1.0,
            1.0,
            1.0
          ],
          "reflectionColorFactor": [
            1.0,
            1.0,
            1.0,
            1.0
          ]
        }
      }
    }
  ],
  "meshes": [
    {
      "primitives": [
        {
          "attributes": {
            "POSITION": 0,
            "NORMAL": 1,
            "TANGENT": 2,
            "TEXCOORD_0": 3,
            "TEXCOORD_1": 4
          },
          "indices": 5,
          "material": 0
        }
      ],
      "name": "Cube"
    },
    {
      "primitives": [
        {
          "attributes": {
            "POSITION": 6,
            "NORMAL": 7,
            "TANGENT": 8,
            "TEXCOORD_0": 9,
            "TEXCOORD_1": 10
          },
          "indices": 11,
          "material": 0
        }
      ],
      "name": "Plane"
    },
    {
      "primitives": [
        {
          "attributes": {
            "POSITION": 12,
            "NORMAL": 13,
            "TANGENT": 14,
            "TEXCOORD_0": 15,
            "TEXCOORD_1": 16
          },
          "indices": 17,
          "material": 1
        }
      ],
      "name": "Plane.Collider"
    },
    {
      "primitives": [
        {
          "attributes": {
            "POSITION": 18,
            "NORMAL": 19,
            "TANGENT": 20,
            "TEXCOORD_0": 21,
            "TEXCOORD_1": 22
          },
          "indices": 23,
          "material": 0
        }
      ],
      "name": "Sphere"
    }
  ],
  "nodes": [
    {
      "translation": [
        0.0,
        1.0,
        -10.0
      ],
      "name": "Main Camera",
      "extras": {
        "metadata": {
          "guid": "202cb27f-2ebd-4d11-a062-31d949b85ee7",
          "group": "MainCamera",
          "tags": "MainCamera Layer0",
          "components": [
            {
              "alias": "camera",
              "type": 0,
              "culling": -1,
              "clearflags": 1,
              "renderlist": null,
              "maincamera": true,
              "camerabase": 0,
              "perspectiveyfov": 1.04719758,
              "perspectiveaspect": 1.77777779,
              "perspectivezfar": 2011,
              "perspectiveznear": 0.3
            }
          ]
        }
      }
    },
    {
      "rotation": [
        0.408217877,
        -0.234569684,
        0.109381631,
        0.8754261
      ],
      "scale": [
        1.0,
        1.0,
        0.99999994
      ],
      "translation": [
        0.0,
        50.0,
        0.0
      ],
      "name": "Directional Light",
      "extras": {
        "metadata": {
          "guid": "2e3170ca-7ed9-4533-acaf-8e6241a87442",
          "components": [
            {
              "alias": "light",
              "type": 0,
              "range": 10.0,
              "culling": -1,
              "clearflags": 0,
              "renderlist": null,
              "color": {
                "r": 1.0,
                "g": 0.904661357,
                "b": 0.6724432,
                "a": 1.0
              },
              "specular": {
                "r": 1.0,
                "g": 1.0,
                "b": 1.0,
                "a": 1.0
              },
              "intensity": 2.0,
              "spotangle": 30.0,
              "orthoscale": 0.1,
              "autorender": true,
              "lightmapmode": 0,
              "lightmaptype": 4,
              "numcascades": 2,
              "calczbounds": false,
              "updateextends": false,
              "ortholeft": 1.7976931348623157E+308,
              "orthoright": 1.7976931348623157E+308,
              "orthotop": 1.7976931348623157E+308,
              "orthobottom": 1.7976931348623157E+308,
              "softshadows": true,
              "shadowmapsize": 1024,
              "shadowquality": "Medium",
              "generateshadows": true,
              "shadowdistance": 40.0,
              "shadowstrength": 1.0,
              "shadowbiasfactor": 0.01,
              "normalbiasfactor": 0.01,
              "shadowmapbias": 0.05,
              "normalmapbias": 0.4,
              "shadownearplane": 0.2,
              "cascadelambda": 0.9,
              "twocascadesplit": 0.333333343,
              "fourcascadesplit": [
                0.06666667,
                0.2,
                0.466666669
              ],
              "blendpertecntage": 1E-08,
              "boundsrefreshrate": 1,
              "lightcontactratio": 0.1,
              "stabilizecascades": false,
              "exponentdecayspeed": 1.0,
              "penumbradarkness": 1.0,
              "softshadowsfilter": 99,
              "freezeshadows": false,
              "setdepthclamp": false,
              "calcdepths": false,
              "depthscaling": 50.0,
              "kernelblur": false,
              "blurscaling": 2.0,
              "blurkernelsize": 1.0,
              "blurboxoffset": 1.0,
              "shadowfrustumsize": 0.0,
              "frustumedgefalloff": 0.0,
              "forcebackfacesonly": false,
              "transparencyshadow": false,
              "softtransparency": false,
              "shadowfilterquality": "Medium",
              "usefullfloatfirst": false
            }
          ]
        }
      }
    },
    {
      "mesh": 0,
      "translation": [
        -1.85,
        2.08,
        0.0
      ],
      "name": "Cube",
      "extras": {
        "metadata": {
          "guid": "70bc2a0d-825c-42bd-8186-13b013bc7e17",
          "physics": {
            "type": "rigidbody",
            "root": false,
            "mass": 1.0,
            "ldrag": 0.0,
            "adrag": 0.05,
            "sleep": false,
            "center": {
              "x": 0.0,
              "y": 0.0,
              "z": 0.0
            },
            "filter": -1,
            "freeze": {
              "positionx": false,
              "positiony": false,
              "positionz": false,
              "rotationx": false,
              "rotationy": false,
              "rotationz": false
            },
            "gravity": true,
            "vehicle": false,
            "kinematic": false,
            "truestatic": false
          },
          "collision": {
            "type": "BoxCollider",
            "entity": "Cube",
            "center": {
              "x": 0.0,
              "y": 0.0,
              "z": 0.0
            },
            "trigger": false,
            "persist": false,
            "meshkey": null,
            "boxsize": {
              "x": 1.0,
              "y": 1.0,
              "z": 1.0
            },
            "segments": 24,
            "cylinder": false,
            "compound": false,
            "convexmesh": false,
            "sourcescale": {
              "x": 1.0,
              "y": 1.0,
              "z": 1.0
            },
            "capsulesize": {
              "x": 0.0,
              "y": 0.0,
              "z": 0.0
            },
            "sphereradius": 0.0,
            "restitution": 0.0,
            "dynamicfriction": 0.0,
            "staticfriction": 0.0,
            "frictioncombine": 0,
            "restitutioncombine": 0,
            "wheelinformation": null,
            "compoundcolliders": null,
            "colliderinstances": true
          },
          "renderer": {
            "castshadows": true,
            "receiveshadows": true,
            "snapshotrendering": 0,
            "usevertexcolors": false,
            "istriggervolume": false,
            "checkcollisions": true,
            "hasmeshcollider": false,
            "freezeworldmatrix": false,
            "setmeshpickable": true,
            "cullingstrategy": 0,
            "showboundingbox": false,
            "defaultellipsoid": {
              "x": 0.5,
              "y": 1.0,
              "z": 0.5
            },
            "ellipsoidoffset": {
              "x": 0.0,
              "y": 0.0,
              "z": 0.0
            },
            "rendergroupid": 0
          },
          "components": [
            {
              "alias": "script",
              "order": -1,
              "klass": "TOOLKIT.RigidbodyPhysics",
              "properties": {
                "mass": 1.0,
                "drag": 0.0,
                "angularDrag": 0.05,
                "useGravity": true,
                "isKinematic": false
              },
              "instanceID": 44632,
              "instance": null
            }
          ]
        }
      }
    },
    {
      "children": [
        4
      ],
      "mesh": 1,
      "scale": [
        10.0,
        1.0,
        10.0
      ],
      "name": "Plane",
      "extras": {
        "metadata": {
          "guid": "e2db0c99-a5c5-4954-a857-f296f72174da",
          "navigation": {
            "area": 0,
            "links": null
          },
          "tags": "Untagged NavigationStatic Layer0",
          "physics": {
            "type": "rigidbody",
            "root": false,
            "mass": 0,
            "ldrag": 0,
            "adrag": 0.05,
            "sleep": false,
            "center": {
              "x": 0.0,
              "y": 0.0,
              "z": 0.0
            },
            "filter": -1,
            "freeze": {
              "positionx": false,
              "positiony": false,
              "positionz": false,
              "rotationx": false,
              "rotationy": false,
              "rotationz": false
            },
            "gravity": false,
            "vehicle": false,
            "kinematic": true,
            "truestatic": true
          },
          "collision": {
            "type": "MeshCollider",
            "entity": "Plane",
            "center": {
              "x": 0.0,
              "y": 0.0,
              "z": 0.0
            },
            "trigger": false,
            "persist": false,
            "meshkey": "MESH_ID664_X1_Y1_Z1_CONVEX_FALSE",
            "boxsize": {
              "x": 0.0,
              "y": 0.0,
              "z": 0.0
            },
            "segments": 24,
            "cylinder": false,
            "compound": false,
            "convexmesh": false,
            "sourcescale": {
              "x": 10.0,
              "y": 1.0,
              "z": 10.0
            },
            "capsulesize": {
              "x": 0.0,
              "y": 0.0,
              "z": 0.0
            },
            "sphereradius": 0.0,
            "restitution": 0.0,
            "dynamicfriction": 0.0,
            "staticfriction": 0.0,
            "frictioncombine": 0,
            "restitutioncombine": 0,
            "wheelinformation": null,
            "compoundcolliders": null,
            "colliderinstances": true
          },
          "renderer": {
            "castshadows": false,
            "receiveshadows": true,
            "snapshotrendering": 0,
            "usevertexcolors": false,
            "istriggervolume": false,
            "checkcollisions": true,
            "hasmeshcollider": true,
            "freezeworldmatrix": true,
            "setmeshpickable": true,
            "cullingstrategy": 0,
            "showboundingbox": false,
            "defaultellipsoid": {
              "x": 0.5,
              "y": 1.0,
              "z": 0.5
            },
            "ellipsoidoffset": {
              "x": 0.0,
              "y": 0.0,
              "z": 0.0
            },
            "rendergroupid": 0
          }
        }
      }
    },
    {
      "mesh": 2,
      "name": "Plane.Collider",
      "extras": {
        "metadata": {
          "guid": "e2db0c99-a5c5-4954-a857-f296f72174da",
          "visible": false,
          "visibility": 0.5,
          "tags": "CollisionMesh Layer0",
          "collision": {
            "type": "MeshCollider",
            "entity": "Plane",
            "center": {
              "x": 0.0,
              "y": 0.0,
              "z": 0.0
            },
            "trigger": false,
            "persist": false,
            "meshkey": null,
            "boxsize": {
              "x": 0.0,
              "y": 0.0,
              "z": 0.0
            },
            "segments": 24,
            "cylinder": false,
            "compound": false,
            "convexmesh": false,
            "sourcescale": {
              "x": 10.0,
              "y": 1.0,
              "z": 10.0
            },
            "capsulesize": {
              "x": 0.0,
              "y": 0.0,
              "z": 0.0
            },
            "sphereradius": 0.0,
            "restitution": 0.0,
            "dynamicfriction": 0.0,
            "staticfriction": 0.0,
            "frictioncombine": 0,
            "restitutioncombine": 0,
            "wheelinformation": null,
            "compoundcolliders": null,
            "colliderinstances": true
          },
          "renderer": {
            "castshadows": false,
            "receiveshadows": false,
            "snapshotrendering": 0,
            "usevertexcolors": false,
            "istriggervolume": true,
            "checkcollisions": true,
            "hasmeshcollider": false,
            "freezeworldmatrix": true,
            "setmeshpickable": false,
            "cullingstrategy": 0,
            "showboundingbox": false
          }
        }
      }
    },
    {
      "name": "SceneController",
      "extras": {
        "metadata": {
          "guid": "21b07ffd-a8e9-4036-8e9b-09c0e07d0d9d",
          "components": [
            {
              "alias": "script",
              "order": -10,
              "klass": "PROJECT.DebugInformation",
              "properties": {
                "inspectorKeyIsI": true,
                "enableDebugKeys": true,
                "showDebugLabels": true,
                "popupDebugPanel": false,
                "togglePlayerViews": false,
                "allowXboxLiveSignIn": false,
                "debugOutputTextColor": {
                  "r": 0.0,
                  "g": 1.0,
                  "b": 0.0,
                  "a": 1.0
                }
              },
              "instanceID": 44624,
              "instance": null
            },
            {
              "alias": "script",
              "order": -10,
              "klass": "PROJECT.AssetPreloader",
              "properties": {
                "auto__parentMeshes": false,
                "auto__importMeshes": [],
                "auto__assetContainers": [
                  "testenemy.glb"
                ]
              },
              "instanceID": 44624,
              "instance": null
            }
          ]
        }
      }
    },
    {
      "mesh": 3,
      "translation": [
        1.124,
        1.43,
        -3.21
      ],
      "name": "Sphere",
      "extras": {
        "metadata": {
          "guid": "f6148d2e-754a-491d-ada9-792e8adc08c8",
          "physics": {
            "type": "rigidbody",
            "root": false,
            "mass": 1.0,
            "ldrag": 0.0,
            "adrag": 0.05,
            "sleep": false,
            "center": {
              "x": 0.0,
              "y": 0.0,
              "z": 0.0
            },
            "filter": -1,
            "freeze": {
              "positionx": false,
              "positiony": false,
              "positionz": false,
              "rotationx": false,
              "rotationy": false,
              "rotationz": false
            },
            "gravity": true,
            "vehicle": false,
            "kinematic": false,
            "truestatic": false
          },
          "collision": {
            "type": "SphereCollider",
            "entity": "Sphere",
            "center": {
              "x": 0.0,
              "y": 0.0,
              "z": 0.0
            },
            "trigger": false,
            "persist": false,
            "meshkey": null,
            "boxsize": {
              "x": 0.0,
              "y": 0.0,
              "z": 0.0
            },
            "segments": 24,
            "cylinder": false,
            "compound": false,
            "convexmesh": false,
            "sourcescale": {
              "x": 1.0,
              "y": 1.0,
              "z": 1.0
            },
            "capsulesize": {
              "x": 0.0,
              "y": 0.0,
              "z": 0.0
            },
            "sphereradius": 0.5,
            "restitution": 0.0,
            "dynamicfriction": 0.0,
            "staticfriction": 0.0,
            "frictioncombine": 0,
            "restitutioncombine": 0,
            "wheelinformation": null,
            "compoundcolliders": null,
            "colliderinstances": true
          },
          "renderer": {
            "castshadows": true,
            "receiveshadows": true,
            "snapshotrendering": 0,
            "usevertexcolors": false,
            "istriggervolume": false,
            "checkcollisions": true,
            "hasmeshcollider": false,
            "freezeworldmatrix": false,
            "setmeshpickable": true,
            "cullingstrategy": 0,
            "showboundingbox": false,
            "defaultellipsoid": {
              "x": 0.5,
              "y": 1.0,
              "z": 0.5
            },
            "ellipsoidoffset": {
              "x": 0.0,
              "y": 0.0,
              "z": 0.0
            },
            "rendergroupid": 0
          },
          "components": [
            {
              "alias": "script",
              "order": -1,
              "klass": "TOOLKIT.RigidbodyPhysics",
              "properties": {
                "mass": 1.0,
                "drag": 0.0,
                "angularDrag": 0.05,
                "useGravity": true,
                "isKinematic": false
              },
              "instanceID": 44654,
              "instance": null
            }
          ]
        }
      }
    }
  ],
  "scene": 0,
  "scenes": [
    {
      "nodes": [
        0,
        1,
        2,
        3,
        5,
        6
      ],
      "name": "newscene",
      "extras": {
        "metadata": {
          "gltf": true,
          "license": "professional",
          "licensee": "Nishan Poudel",
          "filename": "New Scene",
          "script": "thesurvivortank",
          "project": "thesurvivortank.js",
          "intensity": 1.0,
          "debugging": true,
          "properties": true,
          "disposeroot": false,
          "webptextures": false,
          "webplightmaps": false,
          "ktxtextures": false,
          "ktxlightmaps": false,
          "rendergroups": 4,
          "rawmaterials": [],
          "enablelegacyaudio": false,
          "snapshotrendering": 0,
          "colliderinstances": true,
          "reparentcolliders": true,
          "defaultrendergroup": 0,
          "colliderrendergroup": 0,
          "globalillumination": false,
          "prewarmup": 1.0,
          "hideloader": true,
          "exposure": 1,
          "tonemapping": 0,
          "gammacorrection": 1,
          "trianglenormals": true,
          "deltaworldstep": false,
          "subtimestep": 0.0,
          "contextmenu": true,
          "pointerlock": false,
          "preventdefault": false,
          "ccdpenetration": 0.0001,
          "ccdenabled": true,
          "maxworldsweep": 0,
          "enableinput": true,
          "usecapture": false,
          "userinput": {
            "supportedDevices": [
              {
                "device": "Thrustmaster T80",
                "forward": 7.0,
                "backward": 6.0,
                "leftBrake": 4.0,
                "rightBrake": 5.0,
                "leftDonut": 10.0,
                "rightDonut": 11.0
              }
            ],
            "padDeadStick": 0.25,
            "padLStickXInvert": false,
            "padLStickYInvert": false,
            "padRStickXInvert": false,
            "padRStickYInvert": true,
            "padLStickLevel": 1.0,
            "padRStickLevel": 1.0,
            "wheelDeadZone": 0.1,
            "mouseDeadZone": 0.1,
            "mouseSensitivity": 0.5,
            "mouseMoveInvert": true,
            "useCanvasElement": true,
            "arrowKeyRotation": false,
            "keyboardSmoothing": false,
            "keyboardSensitivity": 3.0,
            "keyboardDeadZone": 0.001
          },
          "showdebugcolliders": false,
          "collidervisibility": 0.5,
          "collisionwireframe": true,
          "navigation": {
            "prebaked": null,
            "tilecount": 0,
            "collision": false,
            "showdebug": false,
            "debugcolor": [
              0.2627451,
              0.5960785,
              0.7372549,
              1.0
            ],
            "debugoffset": 0.0,
            "timesteps": 0.0,
            "areatable": [],
            "bakeprops": {
              "cs": 0.166666672,
              "ch": 0.2,
              "walkableradius": 0,
              "walkableheight": 0,
              "walkableslopeangle": 90.0,
              "walkableclimb": 5,
              "maxedgelen": 12,
              "minregionarea": 2,
              "mergeregionarea": 20,
              "maxsimplificationerror": 1.3,
              "maxvertsperpoly": 6,
              "detailsampledist": 6.0,
              "detailsamplemaxerror": 1.0
            },
            "offmeshlinks": null
          },
          "autoclear": true,
          "clearcolor": {
            "r": 0.192156866,
            "g": 0.3019608,
            "b": 0.4745098,
            "a": 1.0
          },
          "sunposition": {
            "x": 0.0,
            "y": 50.0,
            "z": 0.0
          },
          "sunrotation": {
            "x": 0.408217877,
            "y": -0.234569684,
            "z": 0.109381631,
            "w": 0.8754261
          },
          "enablephysics": true,
          "defaultgravity": {
            "x": 0.0,
            "y": -9.81,
            "z": 0.0
          },
          "freezeactivemeshes": false,
          "performancepriority": 0,
          "imageprocessing": {
            "contrast": 1.0,
            "exposure": 1.0
          },
          "ambientlightintensity": 0.7,
          "ambientspecularcolor": {
            "r": 0.0,
            "g": 0.0,
            "b": 0.0,
            "a": 1.0
          },
          "ambientgroundcolor": {
            "r": 0.575300157,
            "g": 0.567777157,
            "b": 0.5606284,
            "a": 1.0
          },
          "ambientskycolor": {
            "r": 0.569617867,
            "g": 0.609120965,
            "b": 0.6881134,
            "a": 1.0
          },
          "ambientcoloring": {
            "r": 0.0,
            "g": 0.0,
            "b": 0.0,
            "a": 1.0
          },
          "ambientlighting": 0,
          "ambientlightmap": 0,
          "fogtype": "None",
          "fogmode": 0,
          "fogdensity": 0.01,
          "fogcolor": {
            "r": 0.5,
            "g": 0.5,
            "b": 0.5,
            "a": 1.0
          },
          "fogstart": 0.0,
          "fogend": 300.0,
          "skybox": {
            "skyfog": false,
            "skytags": "",
            "skysize": 2000.0,
            "skyfaces": "png",
            "basename": "assets/default-skybox",
            "anisolevel": 1,
            "exposure": 1.3,
            "rotation": 0.0,
            "maxreflect": false,
            "hdrskybox": false,
            "rendergroup": 0,
            "extensions": [
              "_px.png",
              "_py.png",
              "_pz.png",
              "_nx.png",
              "_ny.png",
              "_nz.png"
            ],
            "polynomial": 0.01,
            "environment": null
          }
        }
      }
    }
  ]
}