{
  "extensionsUsed": [
    "CVTOOLS_babylon_mesh",
    "CVTOOLS_left_handed",
    "CVTOOLS_unity_metadata",
    "KHR_materials_specular"
  ],
  "extensionsRequired": [
    "CVTOOLS_babylon_mesh",
    "CVTOOLS_left_handed"
  ],
  "accessors": [
    {
      "bufferView": 0,
      "componentType": 5126,
      "count": 121,
      "type": "VEC3",
      "max": [
        5.0,
        1.1102230246251565E-16,
        5.0
      ],
      "min": [
        -5.0,
        -1.1102230246251565E-16,
        -5.0
      ],
      "name": "vertices"
    },
    {
      "bufferView": 1,
      "componentType": 5126,
      "count": 121,
      "type": "VEC3",
      "max": [
        0.0,
        1.0,
        0.0
      ],
      "min": [
        0.0,
        1.0,
        0.0
      ],
      "name": "normals"
    },
    {
      "bufferView": 2,
      "componentType": 5126,
      "count": 121,
      "type": "VEC4",
      "max": [
        -1.0,
        0.0,
        0.0,
        -1.0
      ],
      "min": [
        -1.0,
        0.0,
        0.0,
        -1.0
      ],
      "name": "tangents"
    },
    {
      "bufferView": 3,
      "componentType": 5126,
      "count": 121,
      "type": "VEC2",
      "max": [
        1.0,
        1.0
      ],
      "min": [
        0.0,
        0.0
      ],
      "name": "uv"
    },
    {
      "bufferView": 4,
      "componentType": 5126,
      "count": 121,
      "type": "VEC2",
      "max": [
        1.0,
        1.0
      ],
      "min": [
        0.0,
        0.0
      ],
      "name": "uv2"
    },
    {
      "bufferView": 5,
      "componentType": 5125,
      "count": 600,
      "type": "SCALAR",
      "max": [
        120.0
      ],
      "min": [
        0.0
      ],
      "name": "indices"
    },
    {
      "bufferView": 6,
      "componentType": 5126,
      "count": 121,
      "type": "VEC3",
      "max": [
        5.0,
        1.1102230246251565E-16,
        5.0
      ],
      "min": [
        -5.0,
        -1.1102230246251565E-16,
        -5.0
      ],
      "name": "vertices"
    },
    {
      "bufferView": 7,
      "componentType": 5126,
      "count": 121,
      "type": "VEC3",
      "max": [
        0.0,
        1.0,
        0.0
      ],
      "min": [
        0.0,
        1.0,
        0.0
      ],
      "name": "normals"
    },
    {
      "bufferView": 8,
      "componentType": 5126,
      "count": 121,
      "type": "VEC4",
      "max": [
        -1.0,
        0.0,
        0.0,
        -1.0
      ],
      "min": [
        -1.0,
        0.0,
        0.0,
        -1.0
      ],
      "name": "tangents"
    },
    {
      "bufferView": 9,
      "componentType": 5126,
      "count": 121,
      "type": "VEC2",
      "max": [
        1.0,
        1.0
      ],
      "min": [
        0.0,
        0.0
      ],
      "name": "uv"
    },
    {
      "bufferView": 10,
      "componentType": 5126,
      "count": 121,
      "type": "VEC2",
      "max": [
        1.0,
        1.0
      ],
      "min": [
        0.0,
        0.0
      ],
      "name": "uv2"
    },
    {
      "bufferView": 11,
      "componentType": 5125,
      "count": 600,
      "type": "SCALAR",
      "max": [
        120.0
      ],
      "min": [
        0.0
      ],
      "name": "indices"
    },
    {
      "bufferView": 12,
      "componentType": 5126,
      "count": 515,
      "type": "VEC3",
      "max": [
        0.5,
        0.5,
        0.5
      ],
      "min": [
        -0.5,
        -0.5,
        -0.5
      ],
      "name": "vertices"
    },
    {
      "bufferView": 13,
      "componentType": 5126,
      "count": 515,
      "type": "VEC3",
      "max": [
        0.99997496604919434,
        1.0,
        0.9999769926071167
      ],
      "min": [
        -0.99997496604919434,
        -1.0,
        -0.99997353553771973
      ],
      "name": "normals"
    },
    {
      "bufferView": 14,
      "componentType": 5126,
      "count": 515,
      "type": "VEC4",
      "max": [
        1.0,
        0.056131001561880112,
        1.0,
        1.0
      ],
      "min": [
        -1.0,
        -0.065983392298221588,
        -1.0,
        -1.0
      ],
      "name": "tangents"
    },
    {
      "bufferView": 15,
      "componentType": 5126,
      "count": 515,
      "type": "VEC2",
      "max": [
        0.99833369255065918,
        0.98237103223800659
      ],
      "min": [
        -0.00092136859893798828,
        0.024108767509460449
      ],
      "name": "uv"
    },
    {
      "bufferView": 16,
      "componentType": 5126,
      "count": 515,
      "type": "VEC2",
      "max": [
        1.0000003576278687,
        1.0
      ],
      "min": [
        0.0,
        0.34614646434783936
      ],
      "name": "uv2"
    },
    {
      "bufferView": 17,
      "componentType": 5125,
      "count": 2304,
      "type": "SCALAR",
      "max": [
        514.0
      ],
      "min": [
        0.0
      ],
      "name": "indices"
    },
    {
      "bufferView": 18,
      "componentType": 5126,
      "count": 2621,
      "type": "VEC3",
      "max": [
        0.85092306137084961,
        1.1591665744781494,
        1.1828892230987549
      ],
      "min": [
        -0.85092288255691528,
        0.050644967705011368,
        -1.1828892230987549
      ],
      "name": "vertices"
    },
    {
      "bufferView": 19,
      "componentType": 5126,
      "count": 2621,
      "type": "VEC3",
      "max": [
        1.0,
        1.0,
        1.0
      ],
      "min": [
        -1.0,
        -1.0,
        -1.0
      ],
      "name": "normals"
    },
    {
      "bufferView": 20,
      "componentType": 5126,
      "count": 2621,
      "type": "VEC4",
      "max": [
        1.0,
        1.0,
        1.0,
        1.0
      ],
      "min": [
        -1.0,
        -1.0,
        -1.0,
        -1.0
      ],
      "name": "tangents"
    },
    {
      "bufferView": 21,
      "componentType": 5126,
      "count": 2621,
      "type": "VEC2",
      "max": [
        1.2979967594146729,
        1.4950847625732422
      ],
      "min": [
        -0.068863444030284882,
        -2.9111456871032715
      ],
      "name": "uv"
    },
    {
      "bufferView": 22,
      "componentType": 5126,
      "count": 2621,
      "type": "VEC2",
      "max": [
        1.2979967594146729,
        1.4950847625732422
      ],
      "min": [
        -0.068863444030284882,
        -2.9111456871032715
      ],
      "name": "uv2"
    },
    {
      "bufferView": 23,
      "componentType": 5125,
      "count": 7608,
      "type": "SCALAR",
      "max": [
        2620.0
      ],
      "min": [
        0.0
      ],
      "name": "indices"
    },
    {
      "bufferView": 24,
      "componentType": 5126,
      "count": 4624,
      "type": "VEC3",
      "max": [
        -0.0020700814202427864,
        0.93673205375671387,
        1.0492388010025024
      ],
      "min": [
        -0.77151322364807129,
        -0.026168428361415863,
        -1.0463517904281616
      ],
      "name": "vertices"
    },
    {
      "bufferView": 25,
      "componentType": 5126,
      "count": 4624,
      "type": "VEC3",
      "max": [
        1.0,
        1.0,
        1.0
      ],
      "min": [
        -1.0,
        -1.0,
        -1.0
      ],
      "name": "normals"
    },
    {
      "bufferView": 26,
      "componentType": 5126,
      "count": 4624,
      "type": "VEC4",
      "max": [
        1.0,
        1.0,
        1.0,
        1.0
      ],
      "min": [
        -1.0,
        -1.0,
        -1.0,
        -1.0
      ],
      "name": "tangents"
    },
    {
      "bufferView": 27,
      "componentType": 5126,
      "count": 4624,
      "type": "VEC2",
      "max": [
        1.9730324745178223,
        1.0
      ],
      "min": [
        -1.9730297327041626,
        -8.8791084289550781
      ],
      "name": "uv"
    },
    {
      "bufferView": 28,
      "componentType": 5126,
      "count": 4624,
      "type": "VEC2",
      "max": [
        1.9730324745178223,
        1.0
      ],
      "min": [
        -1.9730297327041626,
        -8.8791084289550781
      ],
      "name": "uv2"
    },
    {
      "bufferView": 29,
      "componentType": 5125,
      "count": 13356,
      "type": "SCALAR",
      "max": [
        4623.0
      ],
      "min": [
        0.0
      ],
      "name": "indices"
    },
    {
      "bufferView": 30,
      "componentType": 5126,
      "count": 4620,
      "type": "VEC3",
      "max": [
        0.77151286602020264,
        0.93673217296600342,
        1.049238920211792
      ],
      "min": [
        0.0020700814202427864,
        -0.026168365031480789,
        -1.0463517904281616
      ],
      "name": "vertices"
    },
    {
      "bufferView": 31,
      "componentType": 5126,
      "count": 4620,
      "type": "VEC3",
      "max": [
        1.0,
        1.0,
        1.0
      ],
      "min": [
        -1.0,
        -1.0,
        -1.0
      ],
      "name": "normals"
    },
    {
      "bufferView": 32,
      "componentType": 5126,
      "count": 4620,
      "type": "VEC4",
      "max": [
        1.0,
        0.99887436628341675,
        1.0,
        1.0
      ],
      "min": [
        -1.0,
        -0.999467670917511,
        -1.0,
        -1.0
      ],
      "name": "tangents"
    },
    {
      "bufferView": 33,
      "componentType": 5126,
      "count": 4620,
      "type": "VEC2",
      "max": [
        1.9730324745178223,
        1.0
      ],
      "min": [
        -1.9730297327041626,
        -8.8791084289550781
      ],
      "name": "uv"
    },
    {
      "bufferView": 34,
      "componentType": 5126,
      "count": 4620,
      "type": "VEC2",
      "max": [
        1.9730324745178223,
        1.0
      ],
      "min": [
        -1.9730297327041626,
        -8.8791084289550781
      ],
      "name": "uv2"
    },
    {
      "bufferView": 35,
      "componentType": 5125,
      "count": 13356,
      "type": "SCALAR",
      "max": [
        4619.0
      ],
      "min": [
        0.0
      ],
      "name": "indices"
    },
    {
      "bufferView": 36,
      "componentType": 5126,
      "count": 2597,
      "type": "VEC3",
      "max": [
        0.64685273170471191,
        1.381216287612915,
        0.93699437379837036
      ],
      "min": [
        -0.64685261249542236,
        -0.054241254925727844,
        -1.0484640598297119
      ],
      "name": "vertices"
    },
    {
      "bufferView": 37,
      "componentType": 5126,
      "count": 2597,
      "type": "VEC3",
      "max": [
        1.0,
        1.0,
        0.99957996606826782
      ],
      "min": [
        -1.0,
        -1.0,
        -0.99889969825744629
      ],
      "name": "normals"
    },
    {
      "bufferView": 38,
      "componentType": 5126,
      "count": 2597,
      "type": "VEC4",
      "max": [
        1.0,
        0.99865049123764038,
        1.0,
        1.0
      ],
      "min": [
        -1.0,
        -0.99753713607788086,
        -1.0,
        -1.0
      ],
      "name": "tangents"
    },
    {
      "bufferView": 39,
      "componentType": 5126,
      "count": 2597,
      "type": "VEC2",
      "max": [
        1.1499999761581421,
        1.0629674196243286
      ],
      "min": [
        -34.2540397644043,
        -96.071342468261719
      ],
      "name": "uv"
    },
    {
      "bufferView": 40,
      "componentType": 5126,
      "count": 2597,
      "type": "VEC2",
      "max": [
        1.1499999761581421,
        1.0629674196243286
      ],
      "min": [
        -34.2540397644043,
        -96.071342468261719
      ],
      "name": "uv2"
    },
    {
      "bufferView": 41,
      "componentType": 5125,
      "count": 7254,
      "type": "SCALAR",
      "max": [
        2596.0
      ],
      "min": [
        0.0
      ],
      "name": "indices"
    }
  ],
  "asset": {
    "generator": "Babylon Toolkit (6000.2.2f1)",
    "version": "2.0"
  },
  "buffers": [
    {
      "uri": "testscene.bin",
      "byteLength": 1032576
    }
  ],
  "bufferViews": [
    {
      "buffer": 0,
      "byteLength": 1452
    },
    {
      "buffer": 0,
      "byteOffset": 1452,
      "byteLength": 1452
    },
    {
      "buffer": 0,
      "byteOffset": 2904,
      "byteLength": 1936
    },
    {
      "buffer": 0,
      "byteOffset": 4840,
      "byteLength": 968
    },
    {
      "buffer": 0,
      "byteOffset": 5808,
      "byteLength": 968
    },
    {
      "buffer": 0,
      "byteOffset": 6776,
      "byteLength": 2400
    },
    {
      "buffer": 0,
      "byteOffset": 9176,
      "byteLength": 1452
    },
    {
      "buffer": 0,
      "byteOffset": 10628,
      "byteLength": 1452
    },
    {
      "buffer": 0,
      "byteOffset": 12080,
      "byteLength": 1936
    },
    {
      "buffer": 0,
      "byteOffset": 14016,
      "byteLength": 968
    },
    {
      "buffer": 0,
      "byteOffset": 14984,
      "byteLength": 968
    },
    {
      "buffer": 0,
      "byteOffset": 15952,
      "byteLength": 2400
    },
    {
      "buffer": 0,
      "byteOffset": 18352,
      "byteLength": 6180
    },
    {
      "buffer": 0,
      "byteOffset": 24532,
      "byteLength": 6180
    },
    {
      "buffer": 0,
      "byteOffset": 30712,
      "byteLength": 8240
    },
    {
      "buffer": 0,
      "byteOffset": 38952,
      "byteLength": 4120
    },
    {
      "buffer": 0,
      "byteOffset": 43072,
      "byteLength": 4120
    },
    {
      "buffer": 0,
      "byteOffset": 47192,
      "byteLength": 9216
    },
    {
      "buffer": 0,
      "byteOffset": 56408,
      "byteLength": 31452
    },
    {
      "buffer": 0,
      "byteOffset": 87860,
      "byteLength": 31452
    },
    {
      "buffer": 0,
      "byteOffset": 119312,
      "byteLength": 41936
    },
    {
      "buffer": 0,
      "byteOffset": 161248,
      "byteLength": 20968
    },
    {
      "buffer": 0,
      "byteOffset": 182216,
      "byteLength": 20968
    },
    {
      "buffer": 0,
      "byteOffset": 203184,
      "byteLength": 30432
    },
    {
      "buffer": 0,
      "byteOffset": 233616,
      "byteLength": 55488
    },
    {
      "buffer": 0,
      "byteOffset": 289104,
      "byteLength": 55488
    },
    {
      "buffer": 0,
      "byteOffset": 344592,
      "byteLength": 73984
    },
    {
      "buffer": 0,
      "byteOffset": 418576,
      "byteLength": 36992
    },
    {
      "buffer": 0,
      "byteOffset": 455568,
      "byteLength": 36992
    },
    {
      "buffer": 0,
      "byteOffset": 492560,
      "byteLength": 53424
    },
    {
      "buffer": 0,
      "byteOffset": 545984,
      "byteLength": 55440
    },
    {
      "buffer": 0,
      "byteOffset": 601424,
      "byteLength": 55440
    },
    {
      "buffer": 0,
      "byteOffset": 656864,
      "byteLength": 73920
    },
    {
      "buffer": 0,
      "byteOffset": 730784,
      "byteLength": 36960
    },
    {
      "buffer": 0,
      "byteOffset": 767744,
      "byteLength": 36960
    },
    {
      "buffer": 0,
      "byteOffset": 804704,
      "byteLength": 53424
    },
    {
      "buffer": 0,
      "byteOffset": 858128,
      "byteLength": 31164
    },
    {
      "buffer": 0,
      "byteOffset": 889292,
      "byteLength": 31164
    },
    {
      "buffer": 0,
      "byteOffset": 920456,
      "byteLength": 41552
    },
    {
      "buffer": 0,
      "byteOffset": 962008,
      "byteLength": 20776
    },
    {
      "buffer": 0,
      "byteOffset": 982784,
      "byteLength": 20776
    },
    {
      "buffer": 0,
      "byteOffset": 1003560,
      "byteLength": 29016
    }
  ],
  "materials": [
    {
      "pbrMetallicRoughness": {
        "metallicFactor": 0.0,
        "roughnessFactor": 0.5
      },
      "emissiveFactor": [
        0.0,
        0.0,
        0.0
      ],
      "name": "Default-Material",
      "extensions": {
        "KHR_materials_specular": {}
      },
      "extras": {
        "metadata": {
          "alphaMode": 2,
          "alphaFade": false,
          "isSpecular": false,
          "useWireframe": false,
          "depthPrepass": false,
          "freezeMaterial": false,
          "disableLighting": false,
          "detailBlendLevel": 0.75,
          "detailBumpLevel": 1.0,
          "detailRoughLevel": 0.5,
          "lightmapLevel": 0.5,
          "backFaceCulling": true,
          "directIntensity": 1.0,
          "specularIntensity": 1.0,
          "emissiveIntensity": 1.0,
          "environmentIntensity": 1.0,
          "useExpandedLightmapTexture": false,
          "useEmissiveAsIllumination": false,
          "useLightmapAsShadowmap": true,
          "useAlphaFromAlbedoTexture": false,
          "hasAlbedoTextureChannel": false,
          "maxSimultaneousLights": 4,
          "clearCoatIntensity": 0.0,
          "indexOfRefraction": 1.5,
          "ambientColorFactor": [
            1.0,
            1.0,
            1.0,
            1.0
          ],
          "reflectionColorFactor": [
            1.0,
            1.0,
            1.0,
            1.0
          ]
        }
      }
    },
    {
      "pbrMetallicRoughness": {
        "baseColorFactor": [
          0.0,
          0.5225216,
          0.0,
          1.0
        ],
        "metallicFactor": 0.0,
        "roughnessFactor": 0.5
      },
      "name": "Collider-Material",
      "extensions": {
        "KHR_materials_specular": {}
      },
      "extras": {
        "metadata": {
          "alphaMode": 2,
          "alphaFade": false,
          "isSpecular": false,
          "useWireframe": true,
          "depthPrepass": false,
          "freezeMaterial": false,
          "disableLighting": false,
          "detailBlendLevel": 0.75,
          "detailBumpLevel": 1.0,
          "detailRoughLevel": 0.5,
          "lightmapLevel": 0.5,
          "backFaceCulling": true,
          "directIntensity": 1.0,
          "specularIntensity": 1.0,
          "emissiveIntensity": 1.0,
          "environmentIntensity": 1.0,
          "useExpandedLightmapTexture": false,
          "useEmissiveAsIllumination": false,
          "useLightmapAsShadowmap": true,
          "useAlphaFromAlbedoTexture": false,
          "hasAlbedoTextureChannel": false,
          "maxSimultaneousLights": 4,
          "clearCoatIntensity": 0.0,
          "indexOfRefraction": 1.5,
          "ambientColorFactor": [
            1.0,
            1.0,
            1.0,
            1.0
          ],
          "reflectionColorFactor": [
            1.0,
            1.0,
            1.0,
            1.0
          ]
        }
      }
    },
    {
      "pbrMetallicRoughness": {
        "baseColorFactor": [
          1.0,
          0.00400332268,
          0.0,
          1.0
        ],
        "metallicFactor": 0.0
      },
      "name": "EnemyColor",
      "extensions": {
        "KHR_materials_specular": {
          "specularFactor": 0.5
        }
      },
      "extras": {
        "metadata": {
          "alphaMode": 2,
          "alphaFade": false,
          "isSpecular": false,
          "useWireframe": false,
          "depthPrepass": false,
          "freezeMaterial": false,
          "disableLighting": false,
          "detailBlendLevel": 0.75,
          "detailBumpLevel": 1.0,
          "detailRoughLevel": 0.5,
          "lightmapLevel": 0.5,
          "backFaceCulling": true,
          "directIntensity": 1.0,
          "specularIntensity": 1.0,
          "emissiveIntensity": 1.0,
          "environmentIntensity": 0.0,
          "useExpandedLightmapTexture": false,
          "useEmissiveAsIllumination": false,
          "useLightmapAsShadowmap": true,
          "useAlphaFromAlbedoTexture": false,
          "hasAlbedoTextureChannel": false,
          "maxSimultaneousLights": 4,
          "clearCoatIntensity": 0.0,
          "indexOfRefraction": 1.5,
          "ambientColorFactor": [
            1.0,
            1.0,
            1.0,
            1.0
          ],
          "reflectionColorFactor": [
            1.0,
            1.0,
            1.0,
            1.0
          ]
        }
      }
    },
    {
      "pbrMetallicRoughness": {
        "baseColorFactor": [
          0.0149709992,
          0.0149709992,
          0.0149709992,
          1.0
        ],
        "metallicFactor": 0.0
      },
      "name": "TankGrey",
      "extensions": {
        "KHR_materials_specular": {
          "specularFactor": 0.5
        }
      },
      "extras": {
        "metadata": {
          "alphaMode": 2,
          "alphaFade": false,
          "isSpecular": false,
          "useWireframe": false,
          "depthPrepass": false,
          "freezeMaterial": false,
          "disableLighting": false,
          "detailBlendLevel": 0.75,
          "detailBumpLevel": 1.0,
          "detailRoughLevel": 0.5,
          "lightmapLevel": 0.5,
          "backFaceCulling": true,
          "directIntensity": 1.0,
          "specularIntensity": 1.0,
          "emissiveIntensity": 1.0,
          "environmentIntensity": 0.0,
          "useExpandedLightmapTexture": false,
          "useEmissiveAsIllumination": false,
          "useLightmapAsShadowmap": true,
          "useAlphaFromAlbedoTexture": false,
          "hasAlbedoTextureChannel": false,
          "maxSimultaneousLights": 4,
          "clearCoatIntensity": 0.0,
          "indexOfRefraction": 1.5,
          "ambientColorFactor": [
            1.0,
            1.0,
            1.0,
            1.0
          ],
          "reflectionColorFactor": [
            1.0,
            1.0,
            1.0,
            1.0
          ]
        }
      }
    },
    {
      "pbrMetallicRoughness": {
        "baseColorFactor": [
          0.6038274,
          0.6038274,
          0.6038274,
          1.0
        ],
        "metallicFactor": 0.0
      },
      "name": "TankLights",
      "extensions": {
        "KHR_materials_specular": {
          "specularFactor": 0.5
        }
      },
      "extras": {
        "metadata": {
          "alphaMode": 2,
          "alphaFade": false,
          "isSpecular": false,
          "useWireframe": false,
          "depthPrepass": false,
          "freezeMaterial": false,
          "disableLighting": false,
          "detailBlendLevel": 0.75,
          "detailBumpLevel": 1.0,
          "detailRoughLevel": 0.5,
          "lightmapLevel": 0.5,
          "backFaceCulling": true,
          "directIntensity": 1.0,
          "specularIntensity": 1.0,
          "emissiveIntensity": 1.0,
          "environmentIntensity": 0.0,
          "useExpandedLightmapTexture": false,
          "useEmissiveAsIllumination": false,
          "useLightmapAsShadowmap": true,
          "useAlphaFromAlbedoTexture": false,
          "hasAlbedoTextureChannel": false,
          "maxSimultaneousLights": 4,
          "clearCoatIntensity": 0.0,
          "indexOfRefraction": 1.5,
          "ambientColorFactor": [
            1.0,
            1.0,
            1.0,
            1.0
          ],
          "reflectionColorFactor": [
            1.0,
            1.0,
            1.0,
            1.0
          ]
        }
      }
    }
  ],
  "meshes": [
    {
      "primitives": [
        {
          "attributes": {
            "POSITION": 0,
            "NORMAL": 1,
            "TANGENT": 2,
            "TEXCOORD_0": 3,
            "TEXCOORD_1": 4
          },
          "indices": 5,
          "material": 0
        }
      ],
      "name": "Plane"
    },
    {
      "primitives": [
        {
          "attributes": {
            "POSITION": 6,
            "NORMAL": 7,
            "TANGENT": 8,
            "TEXCOORD_0": 9,
            "TEXCOORD_1": 10
          },
          "indices": 11,
          "material": 1
        }
      ],
      "name": "Plane.Collider"
    },
    {
      "primitives": [
        {
          "attributes": {
            "POSITION": 12,
            "NORMAL": 13,
            "TANGENT": 14,
            "TEXCOORD_0": 15,
            "TEXCOORD_1": 16
          },
          "indices": 17,
          "material": 0
        }
      ],
      "name": "Sphere"
    },
    {
      "primitives": [
        {
          "attributes": {
            "POSITION": 18,
            "NORMAL": 19,
            "TANGENT": 20,
            "TEXCOORD_0": 21,
            "TEXCOORD_1": 22
          },
          "indices": 23,
          "extras": {
            "metadata": {
              "submeshes": [
                {
                  "materialIndex": 0,
                  "verticesStart": 0,
                  "verticesCount": 2337,
                  "indexStart": 0,
                  "indexCount": 6486
                },
                {
                  "materialIndex": 1,
                  "verticesStart": 2337,
                  "verticesCount": 96,
                  "indexStart": 6486,
                  "indexCount": 384
                },
                {
                  "materialIndex": 2,
                  "verticesStart": 162,
                  "verticesCount": 2459,
                  "indexStart": 6870,
                  "indexCount": 738
                }
              ],
              "multimaterial": {
                "id": "88be02f1-ce80-4d7e-a950-7679db85f9ba",
                "key": "KEY_2_3_4",
                "name": "MM_TankChassis",
                "materials": [
                  "2",
                  "3",
                  "4"
                ]
              }
            }
          }
        }
      ],
      "name": "TankChassis"
    },
    {
      "primitives": [
        {
          "attributes": {
            "POSITION": 24,
            "NORMAL": 25,
            "TANGENT": 26,
            "TEXCOORD_0": 27,
            "TEXCOORD_1": 28
          },
          "indices": 29,
          "extras": {
            "metadata": {
              "submeshes": [
                {
                  "materialIndex": 0,
                  "verticesStart": 0,
                  "verticesCount": 3520,
                  "indexStart": 0,
                  "indexCount": 11424
                },
                {
                  "materialIndex": 1,
                  "verticesStart": 3520,
                  "verticesCount": 1104,
                  "indexStart": 11424,
                  "indexCount": 1932
                }
              ],
              "multimaterial": {
                "id": "fec220b9-329e-45a2-af7c-d4901f06f9bb",
                "key": "KEY_3_3",
                "name": "MM_TankTracksLeft",
                "materials": [
                  "3",
                  "3"
                ]
              }
            }
          }
        }
      ],
      "name": "TankTracksLeft"
    },
    {
      "primitives": [
        {
          "attributes": {
            "POSITION": 30,
            "NORMAL": 31,
            "TANGENT": 32,
            "TEXCOORD_0": 33,
            "TEXCOORD_1": 34
          },
          "indices": 35,
          "extras": {
            "metadata": {
              "submeshes": [
                {
                  "materialIndex": 0,
                  "verticesStart": 0,
                  "verticesCount": 3516,
                  "indexStart": 0,
                  "indexCount": 11424
                },
                {
                  "materialIndex": 1,
                  "verticesStart": 3516,
                  "verticesCount": 1104,
                  "indexStart": 11424,
                  "indexCount": 1932
                }
              ],
              "multimaterial": {
                "id": "0eff49b9-cd8b-482d-bcc8-05b49d27dd81",
                "key": "KEY_3_3",
                "name": "MM_TankTracksRight",
                "materials": [
                  "3",
                  "3"
                ]
              }
            }
          }
        }
      ],
      "name": "TankTracksRight"
    },
    {
      "primitives": [
        {
          "attributes": {
            "POSITION": 36,
            "NORMAL": 37,
            "TANGENT": 38,
            "TEXCOORD_0": 39,
            "TEXCOORD_1": 40
          },
          "indices": 41,
          "extras": {
            "metadata": {
              "submeshes": [
                {
                  "materialIndex": 0,
                  "verticesStart": 0,
                  "verticesCount": 2285,
                  "indexStart": 0,
                  "indexCount": 6129
                },
                {
                  "materialIndex": 1,
                  "verticesStart": 2285,
                  "verticesCount": 312,
                  "indexStart": 6129,
                  "indexCount": 1125
                }
              ],
              "multimaterial": {
                "id": "332e1763-5e17-4c9b-9499-6dd4a690a534",
                "key": "KEY_2_3",
                "name": "MM_TankTurret",
                "materials": [
                  "2",
                  "3"
                ]
              }
            }
          }
        }
      ],
      "name": "TankTurret"
    }
  ],
  "nodes": [
    {
      "translation": [
        0.0,
        1.0,
        -10.0
      ],
      "name": "Main Camera",
      "extras": {
        "metadata": {
          "guid": "4da4b5f4-b352-443c-8352-e10b74ebc51a",
          "group": "MainCamera",
          "tags": "MainCamera Layer0",
          "components": [
            {
              "alias": "camera",
              "type": 0,
              "culling": -1,
              "clearflags": 1,
              "renderlist": null,
              "maincamera": true,
              "camerabase": 0,
              "perspectiveyfov": 1.04719758,
              "perspectiveaspect": 1.77777779,
              "perspectivezfar": 2011,
              "perspectiveznear": 0.3
            }
          ]
        }
      }
    },
    {
      "rotation": [
        0.408217877,
        -0.234569684,
        0.109381631,
        0.8754261
      ],
      "scale": [
        1.0,
        1.0,
        0.99999994
      ],
      "translation": [
        0.0,
        50.0,
        0.0
      ],
      "name": "Directional Light",
      "extras": {
        "metadata": {
          "guid": "2dcc0e0d-6ee3-43d1-a20a-539936339b90",
          "components": [
            {
              "alias": "light",
              "type": 0,
              "range": 10.0,
              "culling": -1,
              "clearflags": 0,
              "renderlist": null,
              "color": {
                "r": 1.0,
                "g": 0.904661357,
                "b": 0.6724432,
                "a": 1.0
              },
              "specular": {
                "r": 1.0,
                "g": 1.0,
                "b": 1.0,
                "a": 1.0
              },
              "intensity": 2.0,
              "spotangle": 30.0,
              "orthoscale": 0.1,
              "autorender": true,
              "lightmapmode": 0,
              "lightmaptype": 4,
              "numcascades": 2,
              "calczbounds": false,
              "updateextends": false,
              "ortholeft": 1.7976931348623157E+308,
              "orthoright": 1.7976931348623157E+308,
              "orthotop": 1.7976931348623157E+308,
              "orthobottom": 1.7976931348623157E+308,
              "softshadows": true,
              "shadowmapsize": 1024,
              "shadowquality": "Medium",
              "generateshadows": true,
              "shadowdistance": 40.0,
              "shadowstrength": 1.0,
              "shadowbiasfactor": 0.01,
              "normalbiasfactor": 0.01,
              "shadowmapbias": 0.05,
              "normalmapbias": 0.4,
              "shadownearplane": 0.2,
              "cascadelambda": 0.9,
              "twocascadesplit": 0.333333343,
              "fourcascadesplit": [
                0.06666667,
                0.2,
                0.466666669
              ],
              "blendpertecntage": 1E-08,
              "boundsrefreshrate": 1,
              "lightcontactratio": 0.1,
              "stabilizecascades": false,
              "exponentdecayspeed": 1.0,
              "penumbradarkness": 1.0,
              "softshadowsfilter": 99,
              "freezeshadows": false,
              "setdepthclamp": false,
              "calcdepths": false,
              "depthscaling": 50.0,
              "kernelblur": false,
              "blurscaling": 2.0,
              "blurkernelsize": 1.0,
              "blurboxoffset": 1.0,
              "shadowfrustumsize": 0.0,
              "frustumedgefalloff": 0.0,
              "forcebackfacesonly": false,
              "transparencyshadow": false,
              "softtransparency": false,
              "shadowfilterquality": "Medium",
              "usefullfloatfirst": false
            }
          ]
        }
      }
    },
    {
      "children": [
        3
      ],
      "mesh": 0,
      "scale": [
        10.0,
        1.0,
        10.0
      ],
      "name": "Plane",
      "extras": {
        "metadata": {
          "guid": "fc795435-256f-4db2-a431-cc011bc14eda",
          "navigation": {
            "area": 0,
            "links": null
          },
          "tags": "Untagged NavigationStatic Layer0",
          "physics": {
            "type": "rigidbody",
            "root": false,
            "mass": 0,
            "ldrag": 0,
            "adrag": 0.05,
            "sleep": false,
            "center": {
              "x": 0.0,
              "y": 0.0,
              "z": 0.0
            },
            "filter": -1,
            "freeze": {
              "positionx": false,
              "positiony": false,
              "positionz": false,
              "rotationx": false,
              "rotationy": false,
              "rotationz": false
            },
            "gravity": false,
            "vehicle": false,
            "kinematic": true,
            "truestatic": true
          },
          "collision": {
            "type": "MeshCollider",
            "entity": "Plane",
            "center": {
              "x": 0.0,
              "y": 0.0,
              "z": 0.0
            },
            "trigger": false,
            "persist": false,
            "meshkey": "MESH_ID664_X1_Y1_Z1_CONVEX_FALSE",
            "boxsize": {
              "x": 0.0,
              "y": 0.0,
              "z": 0.0
            },
            "segments": 24,
            "cylinder": false,
            "compound": false,
            "convexmesh": false,
            "sourcescale": {
              "x": 10.0,
              "y": 1.0,
              "z": 10.0
            },
            "capsulesize": {
              "x": 0.0,
              "y": 0.0,
              "z": 0.0
            },
            "sphereradius": 0.0,
            "restitution": 0.0,
            "dynamicfriction": 0.0,
            "staticfriction": 0.0,
            "frictioncombine": 0,
            "restitutioncombine": 0,
            "wheelinformation": null,
            "compoundcolliders": null,
            "colliderinstances": true
          },
          "renderer": {
            "castshadows": false,
            "receiveshadows": true,
            "snapshotrendering": 0,
            "usevertexcolors": false,
            "istriggervolume": false,
            "checkcollisions": true,
            "hasmeshcollider": true,
            "freezeworldmatrix": true,
            "setmeshpickable": true,
            "cullingstrategy": 0,
            "showboundingbox": false,
            "defaultellipsoid": {
              "x": 0.5,
              "y": 1.0,
              "z": 0.5
            },
            "ellipsoidoffset": {
              "x": 0.0,
              "y": 0.0,
              "z": 0.0
            },
            "rendergroupid": 0
          }
        }
      }
    },
    {
      "mesh": 1,
      "name": "Plane.Collider",
      "extras": {
        "metadata": {
          "guid": "fc795435-256f-4db2-a431-cc011bc14eda",
          "visible": false,
          "visibility": 0.5,
          "tags": "CollisionMesh Layer0",
          "collision": {
            "type": "MeshCollider",
            "entity": "Plane",
            "center": {
              "x": 0.0,
              "y": 0.0,
              "z": 0.0
            },
            "trigger": false,
            "persist": false,
            "meshkey": null,
            "boxsize": {
              "x": 0.0,
              "y": 0.0,
              "z": 0.0
            },
            "segments": 24,
            "cylinder": false,
            "compound": false,
            "convexmesh": false,
            "sourcescale": {
              "x": 10.0,
              "y": 1.0,
              "z": 10.0
            },
            "capsulesize": {
              "x": 0.0,
              "y": 0.0,
              "z": 0.0
            },
            "sphereradius": 0.0,
            "restitution": 0.0,
            "dynamicfriction": 0.0,
            "staticfriction": 0.0,
            "frictioncombine": 0,
            "restitutioncombine": 0,
            "wheelinformation": null,
            "compoundcolliders": null,
            "colliderinstances": true
          },
          "renderer": {
            "castshadows": false,
            "receiveshadows": false,
            "snapshotrendering": 0,
            "usevertexcolors": false,
            "istriggervolume": true,
            "checkcollisions": true,
            "hasmeshcollider": false,
            "freezeworldmatrix": true,
            "setmeshpickable": false,
            "cullingstrategy": 0,
            "showboundingbox": false
          }
        }
      }
    },
    {
      "name": "SceneController",
      "extras": {
        "metadata": {
          "guid": "b35b1f9e-ddbb-4a18-abe2-8205af1828f6",
          "components": [
            {
              "alias": "script",
              "order": -10,
              "klass": "PROJECT.DebugInformation",
              "properties": {
                "inspectorKeyIsI": true,
                "enableDebugKeys": true,
                "showDebugLabels": true,
                "popupDebugPanel": false,
                "togglePlayerViews": false,
                "allowXboxLiveSignIn": false,
                "debugOutputTextColor": {
                  "r": 0.0,
                  "g": 1.0,
                  "b": 0.0,
                  "a": 1.0
                }
              },
              "instanceID": 44624,
              "instance": null
            }
          ]
        }
      }
    },
    {
      "mesh": 2,
      "translation": [
        1.124,
        1.43,
        -3.21
      ],
      "name": "Sphere",
      "extras": {
        "metadata": {
          "guid": "076806ae-bb45-497b-b547-16926e82e697",
          "physics": {
            "type": "rigidbody",
            "root": false,
            "mass": 1.0,
            "ldrag": 0.0,
            "adrag": 0.05,
            "sleep": false,
            "center": {
              "x": 0.0,
              "y": 0.0,
              "z": 0.0
            },
            "filter": -1,
            "freeze": {
              "positionx": false,
              "positiony": false,
              "positionz": false,
              "rotationx": false,
              "rotationy": false,
              "rotationz": false
            },
            "gravity": true,
            "vehicle": false,
            "kinematic": false,
            "truestatic": false
          },
          "collision": {
            "type": "SphereCollider",
            "entity": "Sphere",
            "center": {
              "x": 0.0,
              "y": 0.0,
              "z": 0.0
            },
            "trigger": false,
            "persist": false,
            "meshkey": null,
            "boxsize": {
              "x": 0.0,
              "y": 0.0,
              "z": 0.0
            },
            "segments": 24,
            "cylinder": false,
            "compound": false,
            "convexmesh": false,
            "sourcescale": {
              "x": 1.0,
              "y": 1.0,
              "z": 1.0
            },
            "capsulesize": {
              "x": 0.0,
              "y": 0.0,
              "z": 0.0
            },
            "sphereradius": 0.5,
            "restitution": 0.0,
            "dynamicfriction": 0.0,
            "staticfriction": 0.0,
            "frictioncombine": 0,
            "restitutioncombine": 0,
            "wheelinformation": null,
            "compoundcolliders": null,
            "colliderinstances": true
          },
          "renderer": {
            "castshadows": true,
            "receiveshadows": true,
            "snapshotrendering": 0,
            "usevertexcolors": false,
            "istriggervolume": false,
            "checkcollisions": true,
            "hasmeshcollider": false,
            "freezeworldmatrix": false,
            "setmeshpickable": true,
            "cullingstrategy": 0,
            "showboundingbox": false,
            "defaultellipsoid": {
              "x": 0.5,
              "y": 1.0,
              "z": 0.5
            },
            "ellipsoidoffset": {
              "x": 0.0,
              "y": 0.0,
              "z": 0.0
            },
            "rendergroupid": 0
          },
          "components": [
            {
              "alias": "script",
              "order": -1,
              "klass": "TOOLKIT.RigidbodyPhysics",
              "properties": {
                "mass": 1.0,
                "drag": 0.0,
                "angularDrag": 0.05,
                "useGravity": true,
                "isKinematic": false
              },
              "instanceID": 44654,
              "instance": null
            }
          ]
        }
      }
    },
    {
      "children": [
        7
      ],
      "translation": [
        -3.66339,
        1.5,
        -3.58108
      ],
      "name": "Enemy",
      "extras": {
        "metadata": {
          "guid": "bdc2a3a4-d3b1-45b7-94cb-b3ba8c1d37fa",
          "layer": 11,
          "layermask": 2048,
          "layername": "Enemy",
          "group": "Enemy",
          "tags": "Enemy Layer11",
          "physics": {
            "type": "rigidbody",
            "root": false,
            "mass": 1.0,
            "ldrag": 0.0,
            "adrag": 0.05,
            "sleep": false,
            "center": {
              "x": 0.0,
              "y": 0.0,
              "z": 0.0
            },
            "filter": -1,
            "freeze": {
              "positionx": false,
              "positiony": false,
              "positionz": false,
              "rotationx": false,
              "rotationy": false,
              "rotationz": false
            },
            "gravity": true,
            "vehicle": false,
            "kinematic": false,
            "truestatic": false
          },
          "collision": {
            "type": "BoxCollider",
            "entity": "Enemy",
            "center": {
              "x": 0.0,
              "y": 0.85,
              "z": 0.0
            },
            "trigger": false,
            "persist": false,
            "meshkey": null,
            "boxsize": {
              "x": 1.5,
              "y": 1.7,
              "z": 1.6
            },
            "segments": 24,
            "cylinder": false,
            "compound": false,
            "convexmesh": false,
            "sourcescale": {
              "x": 1.0,
              "y": 1.0,
              "z": 1.0
            },
            "capsulesize": {
              "x": 0.0,
              "y": 0.0,
              "z": 0.0
            },
            "sphereradius": 0.0,
            "restitution": 0.0,
            "dynamicfriction": 0.0,
            "staticfriction": 0.0,
            "frictioncombine": 0,
            "restitutioncombine": 0,
            "wheelinformation": null,
            "compoundcolliders": null,
            "colliderinstances": true
          },
          "components": [
            {
              "alias": "script",
              "order": -1,
              "klass": "TOOLKIT.RigidbodyPhysics",
              "properties": {
                "mass": 1.0,
                "drag": 0.0,
                "angularDrag": 0.05,
                "useGravity": true,
                "isKinematic": false
              },
              "instanceID": -23016,
              "instance": null
            }
          ]
        }
      }
    },
    {
      "children": [
        8,
        9,
        10,
        11
      ],
      "name": "TankRenderers",
      "extras": {
        "metadata": {
          "guid": "bc34603e-36be-41c8-aec9-db32975a2f82",
          "layer": 11,
          "layermask": 2048,
          "layername": "Enemy",
          "tags": "Untagged Layer11"
        }
      }
    },
    {
      "mesh": 3,
      "translation": [
        9.519595E-08,
        0.0,
        -0.07388233
      ],
      "name": "TankChassis",
      "extras": {
        "metadata": {
          "guid": "1c7433e2-0efe-463b-b91b-5d12c4476efa",
          "layer": 11,
          "layermask": 2048,
          "layername": "Enemy",
          "tags": "Untagged Layer11",
          "renderer": {
            "castshadows": true,
            "receiveshadows": true,
            "snapshotrendering": 0,
            "usevertexcolors": false,
            "istriggervolume": false,
            "checkcollisions": false,
            "hasmeshcollider": false,
            "freezeworldmatrix": false,
            "setmeshpickable": true,
            "cullingstrategy": 0,
            "showboundingbox": false,
            "defaultellipsoid": {
              "x": 0.5,
              "y": 1.0,
              "z": 0.5
            },
            "ellipsoidoffset": {
              "x": 0.0,
              "y": 0.0,
              "z": 0.0
            },
            "rendergroupid": 0
          }
        }
      }
    },
    {
      "mesh": 4,
      "name": "TankTracksLeft",
      "extras": {
        "metadata": {
          "guid": "7a570a87-089a-40c9-9931-95895338946d",
          "layer": 11,
          "layermask": 2048,
          "layername": "Enemy",
          "tags": "Untagged Layer11",
          "renderer": {
            "castshadows": true,
            "receiveshadows": true,
            "snapshotrendering": 0,
            "usevertexcolors": false,
            "istriggervolume": false,
            "checkcollisions": false,
            "hasmeshcollider": false,
            "freezeworldmatrix": false,
            "setmeshpickable": true,
            "cullingstrategy": 0,
            "showboundingbox": false,
            "defaultellipsoid": {
              "x": 0.5,
              "y": 1.0,
              "z": 0.5
            },
            "ellipsoidoffset": {
              "x": 0.0,
              "y": 0.0,
              "z": 0.0
            },
            "rendergroupid": 0
          }
        }
      }
    },
    {
      "mesh": 5,
      "name": "TankTracksRight",
      "extras": {
        "metadata": {
          "guid": "ffb9ac96-5e96-4710-8538-609bba2ef0e5",
          "layer": 11,
          "layermask": 2048,
          "layername": "Enemy",
          "tags": "Untagged Layer11",
          "renderer": {
            "castshadows": true,
            "receiveshadows": true,
            "snapshotrendering": 0,
            "usevertexcolors": false,
            "istriggervolume": false,
            "checkcollisions": false,
            "hasmeshcollider": false,
            "freezeworldmatrix": false,
            "setmeshpickable": true,
            "cullingstrategy": 0,
            "showboundingbox": false,
            "defaultellipsoid": {
              "x": 0.5,
              "y": 1.0,
              "z": 0.5
            },
            "ellipsoidoffset": {
              "x": 0.0,
              "y": 0.0,
              "z": 0.0
            },
            "rendergroupid": 0
          }
        }
      }
    },
    {
      "children": [
        12
      ],
      "mesh": 6,
      "translation": [
        1.05549589E-05,
        1.06,
        -0.03
      ],
      "name": "TankTurret",
      "extras": {
        "metadata": {
          "guid": "4c57db7a-9a84-4326-9d98-3e2ea8b5151e",
          "layer": 11,
          "layermask": 2048,
          "layername": "Enemy",
          "tags": "Untagged Layer11",
          "renderer": {
            "castshadows": true,
            "receiveshadows": true,
            "snapshotrendering": 0,
            "usevertexcolors": false,
            "istriggervolume": false,
            "checkcollisions": false,
            "hasmeshcollider": false,
            "freezeworldmatrix": false,
            "setmeshpickable": true,
            "cullingstrategy": 0,
            "showboundingbox": false,
            "defaultellipsoid": {
              "x": 0.5,
              "y": 1.0,
              "z": 0.5
            },
            "ellipsoidoffset": {
              "x": 0.0,
              "y": 0.0,
              "z": 0.0
            },
            "rendergroupid": 0
          }
        }
      }
    },
    {
      "translation": [
        -0.012,
        0.516,
        0.92
      ],
      "name": "EnemyBulletSpawnPoint",
      "extras": {
        "metadata": {
          "guid": "3dde385d-c3b9-4148-89ea-d6405afffe95",
          "layer": 11,
          "layermask": 2048,
          "layername": "Enemy",
          "tags": "Untagged Layer11"
        }
      }
    }
  ],
  "scene": 0,
  "scenes": [
    {
      "nodes": [
        0,
        1,
        2,
        4,
        5,
        6
      ],
      "name": "testscene",
      "extras": {
        "metadata": {
          "gltf": true,
          "license": "professional",
          "licensee": "Nishan Poudel",
          "filename": "TestScene",
          "script": "thesurvivortank",
          "project": "thesurvivortank.js",
          "intensity": 1.0,
          "debugging": true,
          "properties": true,
          "disposeroot": false,
          "webptextures": false,
          "webplightmaps": false,
          "ktxtextures": false,
          "ktxlightmaps": false,
          "rendergroups": 4,
          "rawmaterials": [],
          "enablelegacyaudio": false,
          "snapshotrendering": 0,
          "colliderinstances": true,
          "reparentcolliders": true,
          "defaultrendergroup": 0,
          "colliderrendergroup": 0,
          "globalillumination": false,
          "prewarmup": 1.0,
          "hideloader": true,
          "exposure": 1,
          "tonemapping": 0,
          "gammacorrection": 1,
          "trianglenormals": true,
          "deltaworldstep": false,
          "subtimestep": 0.0,
          "contextmenu": true,
          "pointerlock": false,
          "preventdefault": false,
          "ccdpenetration": 0.0001,
          "ccdenabled": true,
          "maxworldsweep": 0,
          "enableinput": true,
          "usecapture": false,
          "userinput": {
            "supportedDevices": [
              {
                "device": "Thrustmaster T80",
                "forward": 7.0,
                "backward": 6.0,
                "leftBrake": 4.0,
                "rightBrake": 5.0,
                "leftDonut": 10.0,
                "rightDonut": 11.0
              }
            ],
            "padDeadStick": 0.25,
            "padLStickXInvert": false,
            "padLStickYInvert": false,
            "padRStickXInvert": false,
            "padRStickYInvert": true,
            "padLStickLevel": 1.0,
            "padRStickLevel": 1.0,
            "wheelDeadZone": 0.1,
            "mouseDeadZone": 0.1,
            "mouseSensitivity": 0.5,
            "mouseMoveInvert": true,
            "useCanvasElement": true,
            "arrowKeyRotation": false,
            "keyboardSmoothing": false,
            "keyboardSensitivity": 3.0,
            "keyboardDeadZone": 0.001
          },
          "showdebugcolliders": false,
          "collidervisibility": 0.5,
          "collisionwireframe": true,
          "navigation": {
            "prebaked": null,
            "tilecount": 0,
            "collision": false,
            "showdebug": false,
            "debugcolor": [
              0.2627451,
              0.5960785,
              0.7372549,
              1.0
            ],
            "debugoffset": 0.0,
            "timesteps": 0.0,
            "areatable": [],
            "bakeprops": {
              "cs": 0.166666672,
              "ch": 0.2,
              "walkableradius": 0,
              "walkableheight": 0,
              "walkableslopeangle": 90.0,
              "walkableclimb": 5,
              "maxedgelen": 12,
              "minregionarea": 2,
              "mergeregionarea": 20,
              "maxsimplificationerror": 1.3,
              "maxvertsperpoly": 6,
              "detailsampledist": 6.0,
              "detailsamplemaxerror": 1.0
            },
            "offmeshlinks": null
          },
          "autoclear": true,
          "clearcolor": {
            "r": 0.192156866,
            "g": 0.3019608,
            "b": 0.4745098,
            "a": 1.0
          },
          "sunposition": {
            "x": 0.0,
            "y": 50.0,
            "z": 0.0
          },
          "sunrotation": {
            "x": 0.408217877,
            "y": -0.234569684,
            "z": 0.109381631,
            "w": 0.8754261
          },
          "enablephysics": true,
          "defaultgravity": {
            "x": 0.0,
            "y": -9.81,
            "z": 0.0
          },
          "freezeactivemeshes": false,
          "performancepriority": 0,
          "imageprocessing": {
            "contrast": 1.0,
            "exposure": 1.0
          },
          "ambientlightintensity": 0.7,
          "ambientspecularcolor": {
            "r": 0.0,
            "g": 0.0,
            "b": 0.0,
            "a": 1.0
          },
          "ambientgroundcolor": {
            "r": 0.575300157,
            "g": 0.567777157,
            "b": 0.5606284,
            "a": 1.0
          },
          "ambientskycolor": {
            "r": 0.569617867,
            "g": 0.609120965,
            "b": 0.6881134,
            "a": 1.0
          },
          "ambientcoloring": {
            "r": 0.0,
            "g": 0.0,
            "b": 0.0,
            "a": 1.0
          },
          "ambientlighting": 0,
          "ambientlightmap": 0,
          "fogtype": "None",
          "fogmode": 0,
          "fogdensity": 0.01,
          "fogcolor": {
            "r": 0.5,
            "g": 0.5,
            "b": 0.5,
            "a": 1.0
          },
          "fogstart": 0.0,
          "fogend": 300.0,
          "skybox": {
            "skyfog": false,
            "skytags": "",
            "skysize": 2000.0,
            "skyfaces": "png",
            "basename": "assets/default-skybox",
            "anisolevel": 1,
            "exposure": 1.3,
            "rotation": 0.0,
            "maxreflect": false,
            "hdrskybox": false,
            "rendergroup": 0,
            "extensions": [
              "_px.png",
              "_py.png",
              "_pz.png",
              "_nx.png",
              "_ny.png",
              "_nz.png"
            ],
            "polynomial": 0.01,
            "environment": null
          }
        }
      }
    }
  ]
}